<?xml version="1.0" encoding="UTF-8" standalone="no"?>
<!-- Created with Inkscape (http://www.inkscape.org/) -->

<svg
   width="512"
   height="512"
   viewBox="0 0 135.46666 135.46667"
   version="1.1"
   id="svg5"
   inkscape:version="1.2.2 (b0a8486541, 2022-12-01)"
   sodipodi:docname="enginesIcon.svg"
   xml:space="preserve"
   xmlns:inkscape="http://www.inkscape.org/namespaces/inkscape"
   xmlns:sodipodi="http://sodipodi.sourceforge.net/DTD/sodipodi-0.dtd"
   xmlns="http://www.w3.org/2000/svg"
   xmlns:svg="http://www.w3.org/2000/svg"><sodipodi:namedview
     id="namedview7"
     pagecolor="#505050"
     bordercolor="#eeeeee"
     borderopacity="1"
     inkscape:showpageshadow="0"
     inkscape:pageopacity="0"
     inkscape:pagecheckerboard="0"
     inkscape:deskcolor="#505050"
     inkscape:document-units="mm"
     showgrid="false"
     inkscape:zoom="0.77593293"
     inkscape:cx="442.04851"
     inkscape:cy="396.94152"
     inkscape:window-width="1920"
     inkscape:window-height="1051"
     inkscape:window-x="0"
     inkscape:window-y="0"
     inkscape:window-maximized="1"
     inkscape:current-layer="layer1" /><defs
     id="defs2" /><g
     inkscape:label="Layer 1"
     inkscape:groupmode="layer"
     id="layer1"><path
       style="fill:#e6e6e6;stroke-width:0.408678"
       d="M 57.562059,57.356452 C 46.599304,57.263639 42.499103,57.222033 42.499103,57.222033 l -0.877722,-8.451782 -4.61229,-0.652571 -0.248514,-11.873608 -7.28146,-10.592697 -0.0027,-11.123324 76.513833,0.07121 v 11.277832 c 0,0 -27.124139,26.748958 -30.259054,30.666766 22.122017,39.906344 26.275044,64.394761 26.275044,64.394761 l -68.076644,-0.0624 c 0,0 1.001739,-17.44458 23.632467,-63.519166 z m 22.10696,-17.719607 -8.906374,-1.427607 -3.5423,7.38782 3.22056,4.678938 z M 101.53705,19.478609 H 75.222769 l -2.83385,8.882711 25.074316,0.109775 z m -65.013354,5.007107 5.502605,-0.05649 v -4.950627 h -8.096709 z m 26.955633,3.724127 -3.235457,-8.731095 h -8.906373 v 4.950683 z"
       id="path3883"
       sodipodi:nodetypes="cccccccccccccccccccccccccccccccccc" /></g></svg>
