<?xml version="1.0" encoding="UTF-8" standalone="no"?>
<!-- Created with Inkscape (http://www.inkscape.org/) -->

<svg
   width="512"
   height="512"
   viewBox="0 0 135.46666 135.46667"
   version="1.1"
   id="svg5"
   inkscape:version="1.2.2 (b0a8486541, 2022-12-01)"
   sodipodi:docname="gsplogo.svg"
   xml:space="preserve"
   inkscape:export-filename="gsplogo.png"
   inkscape:export-xdpi="96"
   inkscape:export-ydpi="96"
   xmlns:inkscape="http://www.inkscape.org/namespaces/inkscape"
   xmlns:sodipodi="http://sodipodi.sourceforge.net/DTD/sodipodi-0.dtd"
   xmlns="http://www.w3.org/2000/svg"
   xmlns:svg="http://www.w3.org/2000/svg"><sodipodi:namedview
     id="namedview7"
     pagecolor="#505050"
     bordercolor="#eeeeee"
     borderopacity="1"
     inkscape:showpageshadow="0"
     inkscape:pageopacity="0"
     inkscape:pagecheckerboard="0"
     inkscape:deskcolor="#505050"
     inkscape:document-units="mm"
     showgrid="false"
     inkscape:zoom="1.4142136"
     inkscape:cx="192.33304"
     inkscape:cy="265.16504"
     inkscape:window-width="1920"
     inkscape:window-height="1051"
     inkscape:window-x="0"
     inkscape:window-y="0"
     inkscape:window-maximized="1"
     inkscape:current-layer="layer1" /><defs
     id="defs2" /><g
     inkscape:label="Layer 1"
     inkscape:groupmode="layer"
     id="layer1"
     transform="translate(0,2.6870631)"><path
       style="fill:#800000;stroke-width:0.264583"
       d="m 24.870832,67.880187 2.710209,-2.447396 10.051999,-9.931899 8.80374,-12.241519 16.524239,-22.886457 3.018737,-4.167188 1.525437,-2.182812 1.503132,0.0011 2.958338,0.905754 4.894792,2.954091 4.83087,2.946324 1.867773,0.988656 4.032668,2.098609 3.556188,2.006847 -2.419525,0.0024 -4.101041,0.497534 -7.50235,2.059648 -2.778125,0.776656 -2.371622,0.540448 -1.180999,0.182607 1.048708,0.364655 9.768054,2.076605 4.391781,6.73345 7.696869,10.715625 6.812366,8.124891 6.13383,5.770337 3.39771,4.127502 -42.531765,0.101239 -42.642013,-0.117726 z"
       id="path554"
       sodipodi:nodetypes="cccccccccccccccccccccccccccccc" /><path
       style="fill:#550000;stroke-width:0.264583"
       d="m 90.065919,25.325455 -28.38134,-4.283037 -37.156247,47.056109 38.6113,-0.109855 7.061447,-37.818748 z"
       id="path930"
       sodipodi:nodetypes="cccccc" /><path
       style="fill:#1a1a1a;stroke-width:0.264583"
       d="M 61.647914,116.77679 43.656248,109.53356 30.720388,91.016662 27.781249,81.301014 v -0.591243 l 33.271352,-0.07207 32.874478,-1.973615 7.805211,0.639597 10.18645,-1.569357 -2.80988,10.300564 -0.39964,1.383853 -0.69912,-0.457811 -7.58951,-0.445704 -6.890386,0.01211 -9.392708,1.402025 -14.552083,2.121648 -3.836458,0.909868 5.093229,0.710515 7.672916,1.061106 17.859374,1.61046 6.019266,0.270103 -6.312538,12.785017 -19.265846,6.80051 -8.288276,0.61119 -6.879166,-0.033 z"
       id="path399"
       sodipodi:nodetypes="cccccccccccccccccccccccccc" /><path
       style="fill:#ff0000;stroke-width:0.264583"
       d="M 21.170717,71.229751 29.126239,53.313539 63.683051,5.5562497 h 8.58955 L 104.48553,27.442097 89.855683,31.663612 108.37638,56.165459 112.73666,70.880831 99.527389,58.275413 81.126376,33.055278 69.726247,30.172858 89.412095,25.271228 73.51191,16.04481 66.228252,16.03901 36.149774,57.94378 21.170713,71.229784 Z"
       id="path550"
       sodipodi:nodetypes="ccccccccccccccccc" /><path
       style="fill:#000000;stroke-width:0.264583"
       d="M 81.310608,79.949103 35.636207,84.944437 48.123527,115.5166 27.363377,93.514407 27.031469,78.173363 Z"
       id="path970" /><path
       style="fill:#333333;stroke-width:0.264583"
       d="m 112.40896,77.269298 -3.80334,14.677017 -35.593202,-4.452586 23.00746,-8.119396 z"
       id="path1209" /><path
       style="fill:#ffffff;stroke-width:0.264583"
       d="M 65.560009,123.98431 33.060524,109.86328 19.9674,80.168746 l 0.01639,-1.719792 5.033925,-5.694473 71.555198,0.72787 19.579167,3.219651 -14.94896,2.66278 -41.42455,1.597713 H 28.045832 L 38.91941,102.20063 65.802315,114.33615 94.1128,107.38114 102.33565,96.572911 82.946871,95.40023 64.029164,92.743202 l 16.125548,-2.671929 27.408858,-1.700464 4.88434,5.344324 -12.44604,19.445467 z"
       id="path431"
       sodipodi:nodetypes="ccccccccccccccccccccc" /></g></svg>
