<?xml version="1.0" encoding="UTF-8" standalone="no"?>
<!-- Created with Inkscape (http://www.inkscape.org/) -->

<svg
   width="512"
   height="512"
   viewBox="0 0 135.46666 135.46667"
   version="1.1"
   id="svg5"
   inkscape:version="1.2.2 (b0a8486541, 2022-12-01)"
   sodipodi:docname="gsplogo.svg"
   xml:space="preserve"
   xmlns:inkscape="http://www.inkscape.org/namespaces/inkscape"
   xmlns:sodipodi="http://sodipodi.sourceforge.net/DTD/sodipodi-0.dtd"
   xmlns="http://www.w3.org/2000/svg"
   xmlns:svg="http://www.w3.org/2000/svg"><sodipodi:namedview
     id="namedview7"
     pagecolor="#505050"
     bordercolor="#eeeeee"
     borderopacity="1"
     inkscape:showpageshadow="0"
     inkscape:pageopacity="0"
     inkscape:pagecheckerboard="0"
     inkscape:deskcolor="#505050"
     inkscape:document-units="mm"
     showgrid="false"
     inkscape:zoom="0.5"
     inkscape:cx="-116"
     inkscape:cy="226"
     inkscape:window-width="1920"
     inkscape:window-height="1051"
     inkscape:window-x="0"
     inkscape:window-y="0"
     inkscape:window-maximized="1"
     inkscape:current-layer="layer1" /><defs
     id="defs2" /><g
     inkscape:label="Layer 1"
     inkscape:groupmode="layer"
     id="layer1"
     transform="translate(0,2.6870631)"><path
       style="fill:#800000;stroke-width:0.264583"
       d="m 24.870832,67.880187 c 0,-0.06475 1.219594,-1.16608 2.710209,-2.447396 6.68206,-5.743834 7.894735,-6.94202 10.051999,-9.931899 1.183013,-1.639607 5.144696,-7.14829 8.80374,-12.241519 12.191338,-16.969812 15.019589,-20.887002 16.524239,-22.886457 0.821315,-1.091407 2.179746,-2.966641 3.018737,-4.167188 l 1.525437,-2.182812 1.503132,0.0011 c 1.249876,8.99e-4 1.748309,0.153514 2.958338,0.905754 0.800365,0.497563 3.003021,1.826904 4.894792,2.954091 1.89177,1.127188 4.065664,2.453033 4.83087,2.946324 0.76521,0.493292 1.605706,0.938186 1.867773,0.988656 0.262065,0.05047 2.076768,0.994843 4.032668,2.098609 l 3.556188,2.006847 -2.419525,0.0024 c -1.58207,0.0016 -3.001541,0.173802 -4.101041,0.497534 -1.661435,0.489185 -4.415904,1.245377 -7.50235,2.059648 -0.873125,0.230347 -2.123281,0.579843 -2.778125,0.776656 -0.654844,0.196813 -1.722075,0.440012 -2.371622,0.540448 L 70.795292,29.98359 71.844,30.348245 c 0.96054,0.333996 7.422477,2.094602 8.763343,2.387642 0.817272,0.178609 1.455812,0.938543 5.396492,6.422413 1.934556,2.692136 5.398145,7.514167 7.696869,10.715625 2.298724,3.201458 5.055311,7.035204 6.125752,8.519434 1.671424,2.317533 2.522504,3.171902 6.027084,6.050336 2.24446,1.843455 4.13044,3.397287 4.19107,3.45296 0.0606,0.05569 -19.07866,0.101239 -42.531765,0.101239 -23.453108,0 -42.642013,-0.05298 -42.642013,-0.117726 z"
       id="path554" /><path
       style="fill:#550000;stroke-width:0.264583"
       d="M 90.065919,25.325455 61.684579,21.042418 24.528332,68.098527 51.610938,67.988672 70.201079,30.169924 Z"
       id="path930"
       sodipodi:nodetypes="cccccc" /><path
       style="fill:#1a1a1a;stroke-width:0.264583"
       d="m 61.647914,116.77679 c -5.929194,-0.93102 -12.71629,-3.66342 -17.991666,-7.24323 -5.529318,-3.75212 -9.838809,-9.920903 -12.93586,-18.516898 -1.793311,-4.977407 -2.939139,-8.765074 -2.939139,-9.715648 v -0.591243 l 33.271352,-0.07207 33.271353,-0.07208 7.408336,-1.261938 c 9.58672,-1.633006 10.18645,-1.725401 10.18645,-1.569357 0,0.138313 -2.12884,7.942325 -2.80988,10.300564 l -0.39964,1.383853 -0.69912,-0.457811 c -0.61889,-0.40527 -1.48991,-0.456422 -7.58951,-0.445704 l -6.890386,0.01211 -9.392708,1.402025 c -5.165989,0.771115 -11.714427,1.725856 -14.552083,2.121648 -4.645218,0.647909 -5.027538,0.738582 -3.836458,0.909868 0.727604,0.104632 3.019557,0.424365 5.093229,0.710515 2.073672,0.286149 5.526484,0.763645 7.672916,1.061106 10.86558,1.505781 11.791521,1.589278 17.859374,1.61046 3.571976,0.01246 6.019266,0.122288 6.019266,0.270103 0,0.458584 -2.454225,4.510387 -3.964834,6.545747 -4.419227,5.95437 -12.009154,10.53348 -21.61355,13.03978 -1.749083,0.45643 -3.035953,0.55132 -8.288276,0.61119 -3.419739,0.039 -6.515364,0.0241 -6.879166,-0.033 z"
       id="path399" /><path
       style="fill:#ff0000;stroke-width:0.264583"
       d="m 21.170717,71.229751 c -0.0022,-0.187021 0.162985,-0.603739 0.367141,-0.926042 0.204156,-0.322302 1.580331,-3.61071 3.058165,-7.307571 2.835621,-7.093421 3.25398,-7.987591 4.530216,-9.682599 C 47.936995,28.194061 48.665071,27.328822 63.683051,5.5562497 h 4.294775 4.294775 c 6.506997,4.4781543 8.538635,5.7289563 13.517064,9.2277463 5.698534,4.121487 7.680218,5.315558 18.695865,12.658101 -9.308229,2.494133 -6.106497,1.937691 -14.629847,4.221515 l 3.035502,3.062899 c 0.259082,0.26142 0.626528,0.9525 1.018725,1.389062 0.392194,0.436563 0.913929,1.091406 1.159407,1.455208 1.050054,1.556187 2.323801,3.376973 3.012357,4.306076 0.407107,0.54933 1.333633,1.859017 2.058946,2.910416 0.72531,1.051399 1.67781,2.345629 2.11666,2.876066 0.43886,0.530439 1.0673,1.363876 1.39655,1.852083 0.32924,0.488209 1.06638,1.542494 1.63809,2.342859 0.57171,0.800364 1.31436,1.845627 1.65034,2.322803 0.33597,0.477179 0.98133,1.370148 1.43412,1.984375 0.76614,1.039297 1.50712,3.047823 4.07236,11.038654 0.4438,1.382448 0.98908,2.840964 1.21175,3.241146 0.43904,0.789075 0.13203,0.994468 -0.4458,0.298238 -0.19598,-0.236151 -2.56205,-2.21874 -5.25791,-4.405754 -5.4334,-4.407828 -6.99537,-5.901774 -8.429391,-8.06233 -1.121261,-1.689333 -1.34661,-2.005676 -4.01281,-5.633185 -2.843427,-3.868634 -2.933441,-3.993465 -4.101042,-5.687391 -1.169678,-1.696942 -1.843265,-2.641266 -3.013458,-4.224681 -0.430178,-0.582083 -1.456989,-2.040252 -2.281801,-3.240376 -0.824812,-1.200123 -1.600319,-2.244256 -1.723351,-2.320295 -0.123031,-0.07604 -0.782616,-0.97899 -1.465743,-2.00656 -0.683131,-1.027573 -1.494394,-1.976014 -1.802808,-2.107647 -0.308414,-0.131635 -1.989554,-0.614726 -3.735755,-1.073946 -1.746035,-0.459176 -3.752254,-1.020093 -4.489431,-1.194456 -0.696676,-0.164784 -1.621464,-0.332206 -2.169703,-0.424834 -1.694219,-0.345847 -1.666046,0.06659 -0.01917,-0.430169 0.700425,-0.165502 2.857072,-0.718458 7.868925,-2.01502 6.28491,-1.625901 7.687671,-1.891991 9.522872,-2.224379 l 1.307981,-0.421246 -1.341837,-0.759775 c -1.25665,-0.71154 -3.261352,-1.839156 -3.863574,-2.177497 -0.73078,-0.410567 -1.531329,-0.874307 -2.482569,-1.440449 -0.990056,-0.589244 -2.196987,-1.330858 -3.142873,-1.861677 -0.945885,-0.530819 -3.227083,-1.874978 -5.069332,-2.98702 -4.465671,-2.69563 -5.489524,-2.69645 -7.283658,-0.0058 -1.081035,1.621197 -1.722099,2.527741 -2.9712,4.201647 -0.434363,0.582083 -1.461068,2.040189 -2.28157,3.240234 -0.8205,1.200045 -1.589368,2.242188 -1.708592,2.315873 -0.119224,0.07369 -0.891617,1.115893 -1.716429,2.316017 -0.824812,1.200123 -1.851623,2.658292 -2.281801,3.240375 -1.319019,1.784795 -1.915318,2.629631 -2.944238,4.171395 -0.544012,0.815165 -1.098751,1.549876 -1.232752,1.632693 -0.133998,0.08282 -0.91848,1.132496 -1.743292,2.332619 -0.824812,1.200124 -1.851623,2.658293 -2.281801,3.240376 -1.170193,1.583415 -1.84378,2.527739 -3.013458,4.224681 -1.167601,1.693926 -1.257615,1.818757 -4.101042,5.687391 -2.261473,3.076853 -2.920163,3.995253 -3.802303,5.301469 -0.343966,0.509323 -1.203261,1.402292 -1.909545,1.984375 -0.706284,0.582083 -2.418726,2.057567 -3.805423,3.278849 -3.163633,2.786256 -5.546568,4.879293 -7.416061,6.51386 -0.800365,0.699788 -1.542682,1.40208 -1.649594,1.56065 -0.131665,0.195281 -0.195694,0.178591 -0.198438,-0.05173 z"
       id="path550"
       sodipodi:nodetypes="ssscccccccssssssssssssssssssssssssccsccssssssssssssssssssssssss" /><path
       style="fill:#000000;stroke-width:0.264583"
       d="M 79.547388,79.476776 33.872987,84.47211 46.360307,115.04427 25.600157,93.04208 25.268249,77.701036 Z"
       id="path970" /><path
       style="fill:#333333;stroke-width:0.264583"
       d="m 112.2125,77.212917 -3.80334,14.677017 -35.593206,-4.452586 23.00746,-8.119396 z"
       id="path1209" /><path
       style="fill:#ffffff;stroke-width:0.264583"
       d="m 68.024471,124.42184 c -29.531114,0 -44.976763,-21.18442 -48.057071,-44.253094 l 0.01639,-1.719792 5.033925,-5.694473 34.123953,0.08306 c 33.368973,0.08122 34.197127,0.09549 37.431245,0.64481 7.332897,1.104991 12.695447,2.02425 19.579167,3.219651 -5.77518,1.240465 -8.80215,1.623807 -14.94896,2.66278 -10.209685,1.729867 -6.783246,1.597713 -41.42455,1.597713 H 28.045832 c 10.279992,22.200185 15.683391,35.628005 39.687498,35.946655 18.627476,0 29.25091,-10.04182 34.60232,-20.336239 C 93.176854,96.547071 87.90441,96.11846 82.946871,95.40023 76.146615,94.44423 70.394059,93.564326 64.029164,92.743202 69.6762,91.741898 76.225053,90.658914 80.154712,90.071273 85.668478,89.284668 90.9236,88.356166 107.56357,88.370809 c 0.87696,1.169141 4.709,4.138733 4.88434,5.344324 C 107.75669,111.223 90.316095,124.42184 68.024471,124.42184 Z"
       id="path431"
       sodipodi:nodetypes="ccccscccsccccccccc" /></g></svg>
