<?xml version="1.0" encoding="UTF-8" standalone="no"?>
<!-- Created with Inkscape (http://www.inkscape.org/) -->

<svg
   width="512"
   height="512"
   viewBox="0 0 135.46666 135.46667"
   version="1.1"
   id="svg18755"
   inkscape:version="1.2.2 (b0a8486541, 2022-12-01)"
   sodipodi:docname="allIcon.svg"
   xml:space="preserve"
   xmlns:inkscape="http://www.inkscape.org/namespaces/inkscape"
   xmlns:sodipodi="http://sodipodi.sourceforge.net/DTD/sodipodi-0.dtd"
   xmlns="http://www.w3.org/2000/svg"
   xmlns:svg="http://www.w3.org/2000/svg"><sodipodi:namedview
     id="namedview18757"
     pagecolor="#505050"
     bordercolor="#eeeeee"
     borderopacity="1"
     inkscape:showpageshadow="0"
     inkscape:pageopacity="0"
     inkscape:pagecheckerboard="0"
     inkscape:deskcolor="#505050"
     inkscape:document-units="mm"
     showgrid="false"
     inkscape:zoom="1.0973349"
     inkscape:cx="237.84899"
     inkscape:cy="253.34107"
     inkscape:window-width="1920"
     inkscape:window-height="1051"
     inkscape:window-x="0"
     inkscape:window-y="0"
     inkscape:window-maximized="1"
     inkscape:current-layer="layer1" /><defs
     id="defs18752"><rect
       x="10.873653"
       y="243.91933"
       width="398.00571"
       height="230.98991"
       id="rect22974" /><rect
       x="10.873653"
       y="243.91933"
       width="398.00571"
       height="230.98991"
       id="rect22974-4" /><inkscape:path-effect
       effect="mirror_symmetry"
       start_point="0.86690736,4.2333333"
       end_point="7.5997593,7.5622277"
       center_point="7.5997593,4.2333333"
       id="path-effect628"
       is_visible="true"
       lpeversion="1.2"
       lpesatellites=""
       mode="vertical"
       discard_orig_path="false"
       fuse_paths="false"
       oposite_fuse="false"
       split_items="true"
       split_open="false"
       link_styles="false" /></defs><g
     inkscape:label="Layer 1"
     inkscape:groupmode="layer"
     id="layer1"><path
       style="fill:#e6e6e6;stroke-width:0.220735"
       d="m 62.811052,93.716779 c -5.921188,-0.05005 -8.135783,-0.07257 -8.135783,-0.07257 l -0.474073,-4.564915 -2.491184,-0.352465 -0.134185,-6.413162 -3.932852,-5.721308 -0.0015,-6.007914 41.326546,0.03897 v 6.091361 c 0,0 -14.650253,14.447615 -16.343479,16.563695 11.948514,21.554159 14.191641,34.780809 14.191641,34.780809 l -36.769504,-0.0338 c 0,0 0.541056,-9.42215 12.764333,-34.307883 z m 11.94038,-9.570695 -4.810497,-0.77105 -1.913262,3.990301 1.739484,2.527184 z M 86.562764,73.258242 H 72.349932 l -1.530619,4.797725 13.543107,0.05952 z m -35.114922,2.704434 2.972057,-0.03016 v -2.674011 h -4.37318 z m 14.559238,2.011476 -1.74753,-4.715833 h -4.810498 v 2.673961 z"
       id="path3883"
       sodipodi:nodetypes="cccccccccccccccccccccccccccccccccc" /><g
       inkscape:label="Layer 1"
       id="layer1-5"
       transform="matrix(8.4293507,0,0,8.4293507,64.781454,-0.80794108)"><path
         id="rect3712"
         style="fill:#e6e6e6;stroke-width:0.162916"
         d="m 2.2494751,1.1107849 c -0.2404407,0 -0.4371826,0.196742 -0.4371826,0.4371827 V 1.8952332 L 1.5942179,1.8947164 V 7.3558818 H 6.8052693 V 3.827415 L 6.3928914,3.3964336 6.8342082,2.9551168 6.5753092,2.6962179 6.8724487,2.3990784 6.2724853,1.7985983 5.9748291,2.0962545 5.7438354,1.8652609 5.3262899,2.2828064 4.9614542,1.9014344 4.6968709,1.9009176 v -0.35295 c 0,-0.2404407 -0.198809,-0.4371827 -0.4392497,-0.4371827 z m 0,0.2594157 h 2.0081461 c 0.1007094,0 0.177767,0.077058 0.177767,0.177767 v 0.3524332 l -2.36368,-0.00465 V 1.5479676 c 0,-0.1007094 0.077058,-0.177767 0.1777669,-0.177767 z m 1.9502685,1.8949748 c 0,0 0.9921875,1.1302244 0.9921875,1.6737997 0,0.5435752 -0.4442454,0.984436 -0.9921875,0.984436 -0.547942,0 -0.9921875,-0.4408608 -0.9921875,-0.984436 0,-0.5435753 0.9921875,-1.6737997 0.9921875,-1.6737997 z" /><rect
         style="fill:#e6e6e6;stroke:none;stroke-width:0.148687;stroke-opacity:1"
         id="rect3766"
         width="0.29105753"
         height="0.14523147"
         x="2.6844828"
         y="5.6150084" /><rect
         style="fill:#e6e6e6;fill-opacity:1;stroke:none;stroke-width:0.25;stroke-dasharray:none;stroke-opacity:1"
         id="rect7422"
         width="1.8938679"
         height="1.5416725"
         x="0.95511156"
         y="5.3217564"
         ry="0"
         transform="rotate(-45)" /></g><path
       id="rect319"
       style="fill:#e6e6e6;stroke-width:2.13573"
       d="M 31.206323,11.246551 10.37467,61.757234 H 64.718833 L 43.88718,11.246551 Z m -2.340119,12.326273 h 17.361097 l 8.371872,30.663493 H 20.498502 Z m 0.963574,1.263924 -7.679429,28.139832 H 52.943158 L 45.263729,24.836741 Z m 7.71698,6.469734 c 4.369146,0.001 7.910134,3.543876 7.908851,7.913023 -0.001,4.367522 -3.541337,7.907839 -7.908851,7.908855 -4.367526,-10e-4 -7.907841,-3.541333 -7.908859,-7.908855 -0.0013,-4.369147 3.539703,-7.912008 7.908859,-7.913023 z"
       sodipodi:nodetypes="cccccccccccccccccccc" /></g></svg>
